<?xml version="1.0" ?><svg xmlns="http://www.w3.org/2000/svg" xmlns:xlink="http://www.w3.org/1999/xlink" version="1.1" viewBox="0 0 512 512" style="enable-background:new 0 0 512 512;" xml:space="preserve"><g id="_x32_9_x2C__Sync_x2C__refresh_x2C__again_x2C__reload_x2C__habit_x2C__arrows"><g><g><path style="fill:#5596FB;" d="M501,280.24h-50.9c-4.835,0-8.978,3.46-9.84,8.218c-16.02,88.423-92.986,152.602-183.01,152.602     c-50.597,0-98.592-20.461-133.556-56.538l43.971-22.499c3.396-1.737,5.507-5.254,5.444-9.067     c-0.063-3.813-2.289-7.259-5.74-8.883l-126.42-59.51c-5.92-2.789-12.885,0.78-14.088,7.209l-25.69,137.34     c-0.701,3.749,0.79,7.57,3.846,9.852c3.058,2.282,7.145,2.627,10.539,0.89l43.561-22.291     c47.983,58.388,119.709,93.748,198.134,93.748c127.816,0,235.72-94.243,253.649-219.654     C511.759,285.64,507.088,280.24,501,280.24z M257.25,491.31c-74.009,0-142.339-33.704-187.47-92.471     c-2.944-3.834-8.196-5.004-12.486-2.812l-32.72,16.744L44.141,308.17l96.285,45.324l-37.451,19.163     c-5.729,2.931-7.235,10.447-3.08,15.359c39.256,46.42,96.609,73.043,157.355,73.043c96.891,0,180.127-67.141,201.029-160.819     h30.899C467.894,409.947,370.179,491.31,257.25,491.31z"/></g><g><path style="fill:#283954;" d="M506.983,73.037c-3.057-2.28-7.143-2.626-10.539-0.89l-43.561,22.291     C404.901,36.05,333.175,0.69,254.75,0.69C126.934,0.69,19.03,94.933,1.101,220.345C0.242,226.349,4.898,231.76,11,231.76h50.9     c4.835,0,8.978-3.46,9.84-8.218C87.76,135.119,164.727,70.94,254.75,70.94c50.597,0,98.592,20.461,133.556,56.538l-43.971,22.499     c-3.396,1.737-5.507,5.254-5.444,9.067c0.063,3.813,2.289,7.259,5.74,8.883l126.42,59.51c5.92,2.789,12.885-0.78,14.088-7.209     l25.69-137.34C511.53,79.14,510.039,75.318,506.983,73.037z M467.859,203.83l-96.285-45.324l37.451-19.163     c5.729-2.931,7.235-10.447,3.08-15.359C372.85,77.563,315.496,50.94,254.75,50.94c-96.891,0-180.127,67.141-201.029,160.819     H22.821C44.106,102.053,141.821,20.69,254.75,20.69c74.009,0,142.339,33.704,187.47,92.471c2.938,3.827,8.189,5.007,12.486,2.812     l32.72-16.744L467.859,203.83z"/></g></g></g><g id="Layer_1"/></svg>