<svg class="svg-icon" style="width: 1em;height: 1em;vertical-align: middle;fill: currentColor;overflow: hidden;" viewBox="0 0 1024 1024" version="1.1" xmlns="http://www.w3.org/2000/svg"><path d="M256.50176 415.39584l0.03072 0.03072 176.46592-0.03072v-68.1984h-93.696c43.49952-45.59872 104.704-74.1376 172.6976-74.1376 131.93216 0 238.92992 106.96704 238.92992 238.92992H819.2c0-169.66656-137.53344-307.2-307.2-307.2-87.02976 0-165.46816 36.36224-221.32736 94.53568L290.63168 204.8h-68.22912v176.46592a34.0992 34.0992 0 0 0 34.0992 34.12992zM767.46752 608.60416v-0.03072l-176.46592 0.03072v68.1984h93.66528C641.19808 722.40128 580.00384 750.92992 512 750.92992c-131.93216 0-238.92992-106.9568-238.92992-238.92992H204.8c0 169.66656 137.53344 307.2 307.2 307.2 86.99904 0 165.46816-36.37248 221.32736-94.52544V819.2h68.27008V642.73408a34.10944 34.10944 0 0 0-34.12992-34.12992z"  /></svg>