<svg class="svg-icon" style="width: 1em; height: 1em;vertical-align: middle;fill: currentColor;overflow: hidden;" viewBox="0 0 1024 1024" version="1.1" xmlns="http://www.w3.org/2000/svg"><path d="M1021.226667 21.333333a33.493333 33.493333 0 0 0-17.493334-17.493333 31.146667 31.146667 0 0 0-12.16-3.84h-234.666666a32 32 0 0 0 0 64h157.44l-277.333334 277.333333a32.213333 32.213333 0 0 0 0 45.226667 32.64 32.64 0 0 0 22.613334 9.386667 31.786667 31.786667 0 0 0 23.04-9.386667l277.333333-277.333333v157.44a32 32 0 0 0 64 0v-234.666667a31.146667 31.146667 0 0 0-2.773333-10.666667z" fill="#3A3A3A" /><path d="M896 576a42.666667 42.666667 0 0 0-42.666667 42.666667v320H85.333333V170.666667h320a42.666667 42.666667 0 0 0 0-85.333334H42.666667a42.666667 42.666667 0 0 0-42.666667 42.666667v853.333333a42.666667 42.666667 0 0 0 42.666667 42.666667h853.333333a42.666667 42.666667 0 0 0 42.666667-42.666667V618.666667a42.666667 42.666667 0 0 0-42.666667-42.666667z" fill="#3A3A3A" /></svg>